<?xml version="1.0" encoding="utf-8"?>
<!-- Generator: Adobe Illustrator 16.0.0, SVG Export Plug-In . SVG Version: 6.00 Build 0)  -->
<!DOCTYPE svg PUBLIC "-//W3C//DTD SVG 1.1//EN" "http://www.w3.org/Graphics/SVG/1.1/DTD/svg11.dtd">
<svg version="1.1" id="Layer_1" xmlns="http://www.w3.org/2000/svg" xmlns:xlink="http://www.w3.org/1999/xlink" x="0px" y="0px"
	 width="109.799px" height="45px" viewBox="0 0 109.799 45" enable-background="new 0 0 109.799 45" xml:space="preserve">
<g>
	<g>
		<polygon fill="#555451" points="38.258,32.674 47.424,29.129 53.291,20.616 56.267,23.477 51.879,36.087 52.827,37.661 
			44.364,41.408 40.229,38.047 39.225,36.732 		"/>
		<ellipse fill="#555451" cx="44.869" cy="35.272" rx="4.517" ry="3.778"/>
		<polygon fill="#554945" points="29.03,26.014 37.382,28.443 37.172,28.885 29.597,26.703 		"/>
		<path fill="#CBCAAD" d="M35.862,31.979l10.666-4.212l3.373,5.131l-1.549,0.693c0,0-2.229-2.771-5.766-1.497
			c0,0-2.42,0.817-1.992,4.042l-1.37,0.596L35.862,31.979z"/>
		<path fill="#D8D7B6" d="M40.229,38.047l1.242-0.516c0,0,2.274,2.177,5.637,0.998c0,0,2.396-0.831,2.124-3.427l1.397-0.603
			l2.949,4.123l-9.755,3.709L40.229,38.047z"/>
		<polygon fill="#F8F7D1" points="46.528,27.768 51.552,13.932 58.469,22.976 53.578,38.623 50.629,34.5 54.527,23.053 
			53.578,21.825 49.901,32.898 		"/>
		<polygon fill="#D8D7B6" points="51.552,13.932 41.754,17.295 35.862,31.979 46.528,27.768 		"/>
		<path fill="none" stroke="#FFFFFF" stroke-miterlimit="10" d="M58.469,22.976"/>
		<polygon fill="#554945" points="60.576,15.227 58.064,22.444 58.469,23.053 60.904,15.903 		"/>
		<polygon fill="#554945" points="58.469,22.976 67.435,25.91 67.899,26.642 58.282,23.576 		"/>
		<polygon fill="#605450" points="102.931,0.561 103.098,-0.131 109.799,14.163 109.655,14.82 		"/>
		<polygon fill="#605450" points="36.441,36.087 27.863,25.758 28.123,24.906 36.587,35.225 		"/>
		<polygon fill="#60524E" points="28.152,24.906 0.446,33.416 -0.08,34.176 27.863,25.758 		"/>
		<g>
			<polygon fill="#554945" points="22.079,40.372 13.614,30.051 13.859,29.977 -0.08,34.176 9.603,44.094 22.242,40.323 			"/>
			<polygon fill="#554945" points="22.396,40.276 36.441,36.087 27.863,25.758 13.971,29.943 			"/>
		</g>
		<g>
			<polygon fill="#554945" points="87.999,21.65 109.655,14.82 102.931,0.561 80.612,7.859 			"/>
			<polygon fill="#554945" points="80.26,7.974 60.209,14.531 68.614,27.768 87.67,21.755 			"/>
		</g>
		<polygon fill="#60524E" points="103.098,-0.131 60.565,13.994 60.209,14.531 102.931,0.561 		"/>
		<polygon fill="#554945" points="36.103,34.637 36.587,33.004 36.211,32.471 35.743,34.121 		"/>
		<polygon opacity="0.1" points="43.947,22.148 46.528,15.656 45.435,16.031 42.704,22.557 		"/>
		<path fill="#4A4A4A" d="M44.597,21.934l-1.331,0.439l1.57-8.789l-1.018,0.446l-1.597,8.687l-0.726,0.238l-1.063,0.315l-0.28,6.969
			l0.887-0.374l4.794-8.32L44.597,21.934z M41.417,23.973l2.479-0.807l-2.799,4.926L41.417,23.973z"/>
		<path fill="#838046" stroke="#928F68" stroke-miterlimit="10" d="M31.562,5.938c0,0,3.201-3.753,11.767-0.297
			c0,0,6.589,3.102,4.166,6.328c0,0-1.074,1.611-4.297,1.861c-2.238,0.172-4.782-0.013-8.469-1.621
			C34.729,12.209,28.668,9.354,31.562,5.938z"/>
		<path opacity="0.3" fill="#F3F3F3" d="M34.763,4.711c0,0,3.203-0.547,5.11,0.188c5.96,2.295,1.114,9.796-7.064,5.566
			c0,0-2.03-1.157-1.617-3.066C31.191,7.398,31.429,5.592,34.763,4.711z"/>
		<polygon fill="#928683" points="20.579,39.926 9.792,43.144 1.42,34.568 13.26,31.001 		"/>
		<polygon fill="#928683" points="34.707,35.493 22.669,39.144 15.657,30.497 27.601,26.84 		"/>
		<polygon fill="#928683" points="85.542,21.125 69.479,26.277 62.657,15.227 79.542,9.812 		"/>
		<polygon fill="#928683" points="107.53,13.932 89.034,20.059 82.877,8.66 102.071,2.427 		"/>
	</g>
	<g>
		<ellipse fill="#A2173C" cx="38.545" cy="32.736" rx="1.075" ry="0.957"/>
		<path fill="#6C0C2B" d="M37.593,32.982c0-0.529,0.48-0.957,1.075-0.957c0.385,0,0.721,0.18,0.911,0.449
			c-0.129-0.401-0.542-0.695-1.035-0.695c-0.593,0-1.074,0.428-1.074,0.957c0,0.188,0.062,0.36,0.165,0.508
			C37.608,33.161,37.593,33.074,37.593,32.982z"/>
	</g>
</g>
</svg>
