<?xml version="1.0" encoding="utf-8"?>
<!-- Generator: Adobe Illustrator 16.0.0, SVG Export Plug-In . SVG Version: 6.00 Build 0)  -->
<!DOCTYPE svg PUBLIC "-//W3C//DTD SVG 1.1//EN" "http://www.w3.org/Graphics/SVG/1.1/DTD/svg11.dtd">
<svg version="1.1" id="Layer_1" xmlns="http://www.w3.org/2000/svg" xmlns:xlink="http://www.w3.org/1999/xlink" x="0px" y="0px"
	 width="115px" height="45px" viewBox="-1.934 0 115 45" enable-background="new -1.934 0 115 45" xml:space="preserve">
<g>
	<g>
		<polygon fill="#555451" points="75.33,32.538 74.992,34.157 72.712,38.974 63.463,39.248 63.638,37.419 54.236,27.938 
			55.685,24.074 64.652,29.218 74.45,28.459 		"/>
		
			<ellipse transform="matrix(0.902 -0.4318 0.4318 0.902 -7.7095 33.3558)" fill="#555451" cx="69.608" cy="33.657" rx="4.516" ry="3.778"/>
		<polygon fill="#554945" points="79.685,19.335 73.795,24.572 73.415,24.266 79.898,18.468 		"/>
		<path fill="#CBCAAD" d="M75.332,32.537l-1.494,0.054c-1.007-3.095-3.542-2.786-3.542-2.786c-3.74,0.379-4.555,3.84-4.555,3.84
			l-1.696,0.044l0.827-6.084l11.438-0.806L75.332,32.537z"/>
		<path fill="#D8D7B6" d="M73.599,39.573l-10.4,0.865l0.881-4.991l1.521-0.061c0.875,2.46,3.395,2.175,3.395,2.175
			c3.542-0.389,4.653-3.333,4.653-3.333l1.344-0.071L73.599,39.573z"/>
		<polygon fill="#F8F7D1" points="64.045,33.688 55.948,25.287 55.622,26.805 64.08,35.448 63.2,40.439 52.033,28.437 
			54.368,17.293 64.872,27.604 		"/>
		<polygon fill="#D8D7B6" points="64.872,27.604 76.311,26.799 64.657,16.097 54.368,17.293 		"/>
		<path fill="none" stroke="#FFFFFF" stroke-miterlimit="10" d="M52.033,28.437"/>
		<polygon fill="#554945" points="46.784,23.107 52.066,28.506 52.169,27.781 46.787,22.357 		"/>
		<polygon fill="#554945" points="52.46,28.898 45.109,35.815 45.212,34.954 52.033,28.437 		"/>
		<polygon fill="#605450" points="2.341,43.178 1.928,42.646 1.801,26.861 2.251,27.413 		"/>
		<polygon fill="#605450" points="77.059,30.039 80.238,17.077 80.841,17.733 77.562,30.753 		"/>
		<polygon fill="#60524E" points="80.841,17.733 109.681,13.264 108.877,12.806 80.213,17.09 		"/>
		<g>
			<polygon fill="#554945" points="92.198,28.444 105.229,26.39 109.681,13.264 95.295,15.493 95.546,15.455 92.367,28.419 			"/>
			<polygon fill="#554945" points="95.178,15.512 80.841,17.733 77.562,30.753 92.041,28.468 			"/>
		</g>
		<g>
			<polygon fill="#554945" points="25.533,24.359 2.251,27.413 2.341,43.178 24.824,39.989 			"/>
			<polygon fill="#554945" points="25.166,39.941 44.95,37.139 46.817,21.571 25.9,24.312 			"/>
		</g>
		<polygon fill="#60524E" points="2.251,27.413 46.817,21.571 46.264,21.241 1.801,26.861 		"/>
		<polygon fill="#554945" points="77.344,28.679 76.209,27.394 76.101,28.035 77.242,29.3 		"/>
		<polygon opacity="0.1" enable-background="new    " points="66.072,21.253 60.792,16.546 59.644,16.68 64.774,21.421 		"/>
		<path fill="#4A4A4A" d="M62.813,21.691l7.916,5.436l0.962-0.046l-3.263-6.166l-1.094,0.175l-0.76,0.098l-5.188-7.146l-1.111,0.037
			l5.209,7.25l-1.39,0.179L62.813,21.691z M69.912,25.552l-4.651-3.234l2.583-0.342L69.912,25.552z"/>
		<path fill="#838046" stroke="#928F68" stroke-miterlimit="10" d="M68.799,8.477c-2.632,3.042-4.847,4.307-6.939,5.119
			c-3.015,1.166-4.68,0.176-4.68,0.176c-3.579-1.863,1.025-7.506,1.025-7.506c6.236-6.816,10.743-4.812,10.743-4.812
			C73.033,3.285,68.799,8.477,68.799,8.477z"/>
		<path opacity="0.3" fill="#F3F3F3" enable-background="new    " d="M69.912,2.611c1.198,1.543-0.135,3.463-0.135,3.463
			c-5.55,7.346-13.159,2.672-8.774-1.971c1.403-1.486,4.529-2.376,4.529-2.376C68.919,1.083,69.914,2.609,69.912,2.611z"/>
		<polygon fill="#928683" points="96.277,16.158 108.497,14.265 104.647,25.615 93.528,27.369 		"/>
		<polygon fill="#928683" points="81.545,18.596 93.897,16.74 91.306,27.565 78.87,29.47 		"/>
		<polygon fill="#928683" points="27.342,25.66 44.91,23.256 43.526,36.168 26.813,38.455 		"/>
		<polygon fill="#928683" points="3.832,28.726 23.836,26.062 23.204,39.001 3.875,41.459 		"/>
	</g>
	<g>
		
			<ellipse transform="matrix(0.9022 -0.4313 0.4313 0.9022 -5.0941 34.8148)" fill="#A2173C" cx="74.218" cy="28.64" rx="1.075" ry="0.957"/>
		<path fill="#6C0C2B" d="M75.258,28.704c0.029-0.177,0.012-0.359-0.069-0.528c-0.229-0.478-0.849-0.655-1.382-0.4
			c-0.445,0.213-0.69,0.657-0.634,1.074c0.055-0.324,0.279-0.632,0.628-0.798c0.536-0.257,1.153-0.078,1.383,0.398
			C75.224,28.533,75.247,28.618,75.258,28.704z"/>
	</g>
</g>
</svg>
