<?xml version="1.0" encoding="utf-8"?>
<!-- Generator: Adobe Illustrator 16.0.0, SVG Export Plug-In . SVG Version: 6.00 Build 0)  -->
<!DOCTYPE svg PUBLIC "-//W3C//DTD SVG 1.1//EN" "http://www.w3.org/Graphics/SVG/1.1/DTD/svg11.dtd">
<svg version="1.1" id="Layer_1" xmlns="http://www.w3.org/2000/svg" xmlns:xlink="http://www.w3.org/1999/xlink" x="0px" y="0px"
	 width="661.683px" height="661.366px" viewBox="0 0 661.683 661.366" enable-background="new 0 0 661.683 661.366"
	 xml:space="preserve">
<g>
	<g>
		<circle fill="#98CBEA" cx="330.403" cy="325.928" r="50.182"/>
		<path fill="#6CB375" d="M307.645,293.317c-1.052,3.905-0.693,6.984,4.243,7.054c4.866,0.066,4.114-3.574,3.977-7.091
			c0.661-5.963,21.147,1.255,14.685,9.517c-1.116,1.428-4.219,3.657-5.558,4.715c-1.616,1.277-2.119,1.832-3.592,3.479
			c-1.601,1.789-2.287,2.928-2.112,5.499c0.119,1.732,1.841,4.073,0.152,5.011c-3.167,0.453-4.523-0.2-7.271-1.434
			c-2.322-1.043-5.119-1.432-6.906,0.666c-1.458,1.711-1.105,5.036-0.494,7.281c0.899,3.307,3.476,2.526,5.825,1.07
			c0.651-0.404,1.162-2.162,2.579-1.431c0.92,0.474,0.547,2.091,0.757,3.067c0.458,2.127,1.645,5.365,3.49,6.849
			c4.565,3.67,11.483,0.662,16.15,2.812c3.395,1.564,4.567,4.372,7.262,6.386c2.501,1.87,6.316,0.286,7.731,3.979
			c1.275,3.324-2.536,5.807-4.289,7.955c-1.219,1.491-1.897,3.488-3.369,4.766c-1.506,1.306-2.32,2.158-4.16,2.906
			c-3.873,2.131-4.907,2.62-6.169,4.21c-1.204,1.517-1.403,3.65-1.259,5.52c-0.659,0.178-2.999-0.288-3.683-0.342
			c-0.979-4.257,0.027-9.979-2.118-13.656c-1.313-2.252-4.151-3.11-5.789-5.324c-1.455-1.968-1.84-4.334-2.147-6.719
			c-0.609-4.728,2.416-9.471-3.439-11.216c-2.68-0.799-4.882-2.293-7.199-4.112c-1.995-1.564-3.98-2.166-6.07-3.57
			c-3.64-2.445-7.716-3.555-9.908-7.394c-2.574-4.509-0.243-9.673-0.953-14.589c-0.098-0.685-0.191-2.176-0.554-2.779
			c-0.24-0.401-2.665-1.426-2.554-1.662c0.982-2.082,1.973-3.844,2.639-4.917c1.771-2.853,4.1-6.266,6.352-8.323
			c3.263,3.991,6.934-0.072,9.783-1.781c1.294-0.774,3.625-1.052,4.554,0.237c1.078,1.497-0.423,2.822-0.494,4.315"/>
		<path fill="#6CB375" d="M380.349,321.062c-0.302-3.112-0.897-6.124-1.73-9.025c-0.433-0.308-0.881-0.612-1.228-0.988
			c-0.748-0.812-1.149-1.576-2.044-2.209c-1.749-1.239-3.358-1.813-5.53-1.724c-1.698,0.07-3.871,0.057-5.139,1.307
			c-1.135,1.12-3.319,3.102-3.729,4.574c-1.398,5.025-0.054,6.719,0.274,10.262c0.188,2.018,3.001,3.47,4.815,4.555
			c0.987,0.588,1.979,0.702,3.062,0.905c0.691,0.13,1.741,0.03,2.305,0.165c2.835,0.673,4.107,6.438,4.605,8.916
			c0.556,2.761,0.544,5.56,0.4,8.169C379.721,338.385,381.209,329.881,380.349,321.062z"/>
		<path fill="#6CB375" d="M327.734,275.824c0.461,0.633,1.058,1.251,1.634,1.602c0.769,0.469,1.812,0.613,2.66,1.126
			c1.413,0.853,1.483,2.085,1.649,3.634c0.172,1.605,0.952,2.643,2.277,3.62c1.674,1.234,3.448,1.858,5.546,1.646
			c1.024-0.104,2.257-0.252,2.757-1.289c0.512-1.065-0.191-2.25-0.487-3.268c-0.337-1.156,0.261-1.56,1.313-1.992
			c1.013-0.414,2.285-0.5,3.326-0.702c0.514-0.101,1.345-0.009,1.778-0.394C343.303,276.847,335.67,275.396,327.734,275.824z"/>
		<path fill="#6CB375" d="M367.604,302.871c0.641-0.914,2.71-1.403,3.812-0.978c1.975,0.761,3.07,5.388,5.533,5.278
			c-1.873-4.652-4.411-8.939-7.493-12.754c-2.432,1.033-5.665-0.993-5.467,2.883c0.046,0.883,0.446,2.756-0.289,3.412
			c-1.016,0.908-2.769,0.16-3.7,1.461c-2.234,3.125,3.405,6.521,5.787,4.254C366.754,305.506,366.887,303.895,367.604,302.871z"/>
		<path fill="#6CB375" d="M308.05,284.287c-0.692,0.672-1.11,1.656-0.3,2.504c0.805,0.845,2.292,1.234,3.223,0.523
			c0.896-0.685,1.087-2.281,2.097-2.712c1.017-0.433,1.913-0.088,2.31,0.819c0.165,0.379,0.223,0.867,0.457,1.238
			c0.373,0.596,1.182,0.92,1.803,1.267c1.505,0.837,3.429,1.091,4.97,0.585c1.636-0.536,3.391-1.525,1.881-3.379
			c-1.37-1.68-3.958-2.229-6.063-2.414c-0.806-0.071-4.924-0.264-3.288-1.967c0.602-0.625,2.087-0.646,2.496-1.187
			c0.339-0.448,0.148-1.378-0.09-2.144c-3.207,0.846-6.278,1.995-9.183,3.414C309.238,281.916,309.047,283.318,308.05,284.287z"/>
	</g>
</g>
<circle opacity="0.3" fill="none" stroke="#7DADC3" stroke-linecap="round" stroke-miterlimit="10" stroke-dasharray="3" cx="330.403" cy="330.25" r="325.37"/>
</svg>
